<svg version="1.2" xmlns="http://www.w3.org/2000/svg" viewBox="0 0 977 152" width="977" height="152"><style></style><path  d="m30.9 128v-106.3h77.4v10.1h-67.2v34.7h53.9v10.2h-53.9v41.1h72.3v10.2zm-3.8 0v-106.3h77.4v10.1h-67.2v34.7h53.9v10.2h-53.9v41.1h72.2v10.2zm101.1 0v-106.3h10.2v106.3zm-3.8 0v-106.3h10.3v106.3zm35.5 0v-75.4h10.2v75.4zm0-93.1v-12.2h10.2v12.2zm-3.7 93.1v-75.4h10.2v75.4zm0-93.1v-12.2h10.2v12.2zm29.1 27.3v-9.6h60.3v10l-51.3 55.5h53.5v9.9h-66.2v-10.3l51.4-55.5zm-3.8 0v-9.6h60.3v10l-51.3 55.5h53.5v9.9h-66.2v-10.3l51.4-55.5zm136.5 15.8v31.9q0 9.9 2.2 18.1h-10.4q-2-7.1-2-12.1-6.3 6.4-14.4 10.1-8.1 3.6-16.2 3.6-10.3 0-17.1-6.3-6.8-6.3-6.8-14.1 0-7.8 4.1-12.9 4.1-5.1 13.3-8.8 9.4-3.7 30.9-8.2l6.2-1.3v-4.7q0-6.2-5.3-10-5.2-4-11.8-4-12.8 0-28 12.7l-7.5-6.4q6.4-6.7 15.5-10.6 9.1-4 18.3-4 13.1 0 21.1 7.2 7.9 7.2 7.9 19.8zm-10.2 29.4v-21.6l-5 1q-0.7 0.1-2.1 0.4-17.6 3.6-23.8 6.2-6.2 2.7-9.2 6.5-2.9 3.8-2.9 9.2 0 4.7 4.6 8.1 4.6 3.4 10.7 3.4 11.8 0 27.7-13.2zm6.4-29.4v31.9q0 9.9 2.2 18.1h-10.4q-2-7.1-2-12.1-6.3 6.4-14.4 10.1-8.1 3.6-16.2 3.6-10.2 0-17.1-6.3-6.8-6.3-6.8-14.1 0-7.8 4.1-12.9 4.1-5.1 13.3-8.8 9.4-3.7 30.9-8.2l6.2-1.3v-4.7q0-6.2-5.3-10-5.2-4-11.8-4-12.7 0-28 12.7l-7.5-6.4q6.4-6.7 15.5-10.6 9.2-4 18.3-4 13.2 0 21.1 7.2 7.9 7.2 7.9 19.8zm-10.2 29.4v-21.6l-5 1q-0.7 0.1-2.1 0.4-17.5 3.6-23.8 6.2-6.2 2.7-9.2 6.5-2.9 3.8-2.9 9.2 0 4.7 4.6 8.1 4.6 3.4 10.7 3.4 11.8 0 27.7-13.2zm30.4 20.6v-106.3h10.1v40.5q11.1-11.2 22.6-11.2 13.6 0 22.2 11.1 8.5 11.1 8.5 28.1 0 17.5-8.5 28.5-8.6 10.9-22.5 10.9-5.3 0-9.8-1.9-4.4-1.9-10.2-7.4-1.5-1.6-2.3-2.2v9.9zm10.2-56.7v37.9q1.1 0.9 3.2 2.7 6.1 5.2 9.9 6.8 3.8 1.5 8.3 1.5 10.1 0 15.8-8.3 5.9-8.2 5.9-22 0-13.8-6-21.8-5.9-8.1-16.4-8.1-8.8 0-20.7 11.3zm-14 56.7v-106.3h10.2v40.5q11.1-11.2 22.6-11.2 13.6 0 22.2 11.1 8.5 11.1 8.5 28.1 0 17.5-8.5 28.5-8.6 10.9-22.6 10.9-5.2 0-9.7-1.9-4.4-1.9-10.2-7.4-1.5-1.6-2.3-2.2v9.9zm10.2-56.7v37.9q1.1 0.9 3.2 2.7 6.1 5.2 9.9 6.8 3.8 1.5 8.3 1.5 10.1 0 15.8-8.3 5.8-8.2 5.8-22 0-13.8-5.9-21.8-5.9-8.1-16.4-8.1-8.8 0-20.7 11.3zm131.9 19.9h-56.7q0.3 9.2 3.4 15.7 3 6.5 8.7 10.1 5.6 3.6 11.2 3.6 14 0 25.1-15.5l8.3 5.9q-6.2 8.3-14.9 13.3-8.6 5-17.7 5-9.1 0-17.4-5-8.3-5.1-12.6-13.8-4.4-8.8-4.4-20.6 0-11.4 4.5-20 4.4-8.7 12.7-13.8 8.2-5.1 16.7-5.1 8.9 0 17 5.1 8.1 5.1 11.8 13.2 3.8 8.1 4.3 21.9zm-56.3-9.1h45.5q-1-10.5-7.4-16.5-6.3-6-14.7-6-9 0-16 7-7 6.9-7.4 15.5zm52.5 9.1h-56.7q0.4 9.2 3.4 15.7 3.1 6.5 8.7 10.1 5.6 3.6 11.3 3.6 13.9 0 25-15.5l8.3 5.9q-6.2 8.3-14.9 13.3-8.6 5-17.7 5-9.1 0-17.4-5-8.2-5.1-12.6-13.8-4.3-8.8-4.3-20.6 0-11.4 4.4-20 4.4-8.7 12.7-13.8 8.2-5.1 16.7-5.1 8.9 0 17 5.1 8.1 5.1 11.9 13.2 3.7 8.1 4.2 21.9zm-56.3-9.1h45.5q-1-10.5-7.4-16.5-6.3-6-14.7-6-9 0-16 7-7 6.9-7.4 15.5zm77.3-29.5v-27.4h10.2v27.4h14.4v9.3h-14.4v46.9q0 5.5 2.9 8.9 3 3.4 8.5 3.4 1.6 0 2.8-0.5 0.8-0.3 1.7-0.5v9q-1 0.2-2.2 0.4-1.6 0.4-3.7 0.4-10.9 0-15.5-4.5-4.7-4.5-4.7-14.8v-48.7h-11.6v-9.3zm-3.8 0v-27.4h10.2v27.4h14.3v9.3h-14.3v46.9q0 5.5 2.9 8.9 3 3.4 8.4 3.4 1.7 0 2.8-0.5 0.9-0.3 1.7-0.5v9q-1 0.2-2.2 0.4-1.6 0.4-3.7 0.4-10.8 0-15.5-4.5-4.6-4.5-4.6-14.8v-48.7h-11.6v-9.3zm38.3 75.4v-106.3h10.1v39.2q12.9-6.4 18.5-8.2 5.6-1.7 10.7-1.7 9.7 0 15.2 6.5 5.5 6.5 5.5 18.7v51.8h-10.2v-54.1q0-13.4-12.9-13.4-11.5 0-26.8 9.2v58.3zm-3.7 0v-106.3h10.1v39.2q12.9-6.4 18.5-8.2 5.6-1.7 10.7-1.7 9.7 0 15.2 6.5 5.5 6.5 5.5 18.7v51.8h-10.2v-54.1q0-13.4-13-13.4-11.4 0-26.7 9.2v58.3zm121.5 0v-106.3h42.7q14.4 0 22.6 3.3 8.1 3.4 13.1 10.3 5 6.8 5 15.3 0 19.9-23.3 27l25.7 50.4h-11.1l-24.9-48.3h-39.5v48.3zm46.8-97.1h-36.6v39.7h32.9q13.8 0 21.2-5.2 7.5-5.2 7.5-15 0-9-6.6-14.2-6.5-5.3-18.4-5.3zm-50.6 97.1v-106.3h42.6q14.5 0 22.6 3.3 8.2 3.4 13.1 10.3 5 6.8 5 15.3 0 19.9-23.3 27l25.8 50.4h-11.1l-25-48.3h-39.5v48.3zm46.9-97.1h-36.6v39.7h32.9q13.7 0 21.1-5.2 7.6-5.2 7.6-15 0-9-6.6-14.2-6.6-5.3-18.4-5.3zm83.2 98.7q-15.2 0-25-10.9-9.7-11-9.7-28.2 0-17.8 9.4-28.6 9.5-10.9 24.4-10.9 14.6 0 24.1 11.3 9.5 11.2 9.5 28.7 0 11.1-4.2 19.8-4.2 8.7-12 13.8-7.7 5-16.5 5zm-0.9-8.8q10.1 0 16.7-8.4 6.7-8.5 6.7-22.5 0-13.5-6.4-21.8-6.4-8.3-16.8-8.3-11 0-17.4 8.6-6.3 8.5-6.3 21.7 0 13.6 6.4 22.2 6.4 8.5 17.1 8.5zm-2.9 8.8q-15.2 0-25-10.9-9.6-11-9.6-28.2 0-17.8 9.3-28.6 9.5-10.9 24.4-10.9 14.6 0 24.1 11.3 9.6 11.2 9.6 28.7 0 11.1-4.3 19.8-4.2 8.7-11.9 13.8-7.8 5-16.6 5zm-0.9-8.8q10.1 0 16.7-8.4 6.7-8.5 6.7-22.5 0-13.5-6.4-21.8-6.4-8.3-16.8-8.3-11 0-17.4 8.6-6.3 8.5-6.3 21.7 0 13.6 6.4 22.2 6.4 8.5 17.1 8.5zm102.3-58.2l-7.5 6.6q-8.8-9.6-21.2-9.6-7.5 0-12.9 3.2-5.5 3.2-5.5 7.8 0 3.3 3.1 5.7 3.1 2.5 13.6 5.8 2.4 0.8 3.6 1.2 1.2 0.4 3.7 1.2 11.6 3.7 16.6 6.8 5.1 3.1 7.5 7.2 2.5 4 2.5 9.1 0 9-7.9 15.6-7.8 6.4-20 6.4-9.5 0-18.9-3.9-9.3-4-16.6-10.7l8.8-6.2q5.5 5.2 12.7 8.5 7.2 3.3 13.9 3.3 7.4 0 12.6-3.8 5.2-3.7 5.2-8.9 0-4.4-3.9-7.4-4-2.9-19.1-7.6-13.3-4.2-18.2-6.9-4.9-2.7-7.3-6.3-2.2-3.5-2.2-8.3 0-8.3 8.3-14.4 8.3-6 20.3-6 8.4 0 16.2 3.1 7.8 3.1 12.6 8.5zm-3.8 0l-7.5 6.6q-8.8-9.6-21.1-9.6-7.5 0-13 3.2-5.5 3.2-5.5 7.8 0 3.3 3.1 5.7 3.1 2.5 13.6 5.8 2.4 0.8 3.6 1.2 1.2 0.4 3.7 1.2 11.6 3.7 16.6 6.8 5.1 3.1 7.5 7.2 2.5 4 2.5 9.1 0 9-7.9 15.6-7.8 6.4-20 6.4-9.5 0-18.9-3.9-9.3-4-16.5-10.7l8.7-6.2q5.6 5.2 12.7 8.5 7.2 3.3 13.9 3.3 7.4 0 12.6-3.8 5.2-3.7 5.2-8.9 0-4.4-3.9-7.4-3.9-2.9-19.1-7.6-13.3-4.2-18.2-6.9-4.9-2.7-7.2-6.3-2.3-3.5-2.3-8.3 0-8.3 8.3-14.4 8.3-6 20.3-6 8.4 0 16.2 3.1 7.8 3.1 12.6 8.5zm71.9 0l-7.6 6.6q-8.8-9.6-21.1-9.6-7.5 0-13 3.2-5.4 3.2-5.4 7.8 0 3.3 3 5.7 3.1 2.5 13.6 5.8 2.4 0.8 3.6 1.2 1.2 0.4 3.7 1.2 11.6 3.7 16.7 6.8 5 3.1 7.5 7.2 2.4 4 2.4 9.1 0 9-7.8 15.6-7.8 6.4-20 6.4-9.6 0-19-3.9-9.3-4-16.5-10.7l8.8-6.2q5.5 5.2 12.7 8.5 7.1 3.3 13.8 3.3 7.5 0 12.7-3.8 5.2-3.7 5.2-8.9 0-4.4-4-7.4-3.9-2.9-19.1-7.6-13.3-4.2-18.2-6.9-4.9-2.7-7.2-6.3-2.3-3.5-2.3-8.3 0-8.3 8.3-14.4 8.4-6 20.4-6 8.4 0 16.2 3.1 7.7 3.1 12.6 8.5zm-3.8 0l-7.6 6.6q-8.7-9.6-21.1-9.6-7.5 0-13 3.2-5.4 3.2-5.4 7.8 0 3.3 3.1 5.7 3 2.5 13.6 5.8 2.3 0.8 3.5 1.2 1.2 0.4 3.8 1.2 11.5 3.7 16.6 6.8 5 3.1 7.5 7.2 2.4 4 2.4 9.1 0 9-7.8 15.6-7.8 6.4-20 6.4-9.5 0-18.9-3.9-9.4-4-16.6-10.7l8.8-6.2q5.5 5.2 12.7 8.5 7.1 3.3 13.9 3.3 7.4 0 12.6-3.8 5.2-3.7 5.2-8.9 0-4.4-4-7.4-3.9-2.9-19-7.6-13.4-4.2-18.3-6.9-4.9-2.7-7.2-6.3-2.2-3.5-2.2-8.3 0-8.3 8.2-14.4 8.4-6 20.4-6 8.4 0 16.2 3.1 7.8 3.1 12.6 8.5z"/></svg>