<svg version="1.2" xmlns="http://www.w3.org/2000/svg" viewBox="0 0 977 152" width="977" height="152"><style></style><path  d="m63.7 21.2h-56.8v104.8h59.9v-9.4h-48.9v-40.9h32.8v-9.4h-32.8v-35.7h45.8zm-3.5 0h-56.9v104.8h60v-9.4h-48.9v-40.8h32.7v-9.5h-32.7v-35.7h45.8zm36 0h-10.5v104.9h10.5zm-3.6 0h-10.5v104.8h10.5zm34.5 30.4h-10.6v74.4h10.6zm0-30.4h-10.6v11.5h10.6zm-3.6 30.5h-10.5v74.4h10.5zm0-30.5h-10.5v11.6h10.5zm71.7 30.5h-46.6v8.8h33.4l-36.8 57.8v7.7h50v-8.9h-37.2l37.2-58.8zm-3.5 0h-46.6v8.8h33.4l-36.8 57.9v7.6h50v-8.9h-37.2l37.2-58.8zm74.5 74.3c-2.1-5.2-1.9-10.9-2-16.4v-36.9c0-17-14.5-23.2-24.6-23.2-11.4 0-19.4 6.2-25.6 15.1l7.4 5.5c4.3-6.3 9.9-11.7 18.2-11.7 8.3 0 14.1 4.6 14.1 13.1v4.1l-3.4 1c-16.4 4.4-38.8 9-38.8 30.3 0 11.7 9.2 21.3 20.6 21.3 8.8 0 15.5-5.7 21.6-11.6l1.1 9.4zm-12.5-41.7v21.8c-5.2 6.3-12.8 12.1-21.2 12.1-6.3 0-11.2-6.2-11.2-12.4 0-13.3 18.2-17.4 28.2-20.3zm9 41.7c-2.2-5.2-1.9-10.9-2.1-16.4v-36.9c0-17-14.5-23.2-24.6-23.2-11.3 0-19.4 6.2-25.6 15.1l7.4 5.5c4.3-6.3 10-11.7 18.2-11.7 8.3 0 14.1 4.6 14.1 13.1v4.2l-3.3 0.9c-16.5 4.4-38.8 9-38.8 30.3 0 11.7 9.1 21.3 20.6 21.3 8.7 0 15.5-5.7 21.5-11.6l1.1 9.4zm-12.5-41.7v21.8c-5.1 6.3-12.8 12.1-21.2 12.1-6.3 0-11.2-6.2-11.2-12.4 0-13.3 18.2-17.3 28.2-20.3zm44.9-13.6c3.2-6.5 9.3-12 17.4-12 14.7 0 17.8 20.2 17.8 31.4 0 21.8-10.4 29-17.7 29-7.4 0-14.5-7.6-17.5-13.9zm0 46.9c5 6.2 10.8 10.6 19 10.6 10.1 0 27.2-9.3 27.2-37.9 0-29.2-14.8-40.8-27.6-40.8-7.1 0-13.7 4.7-18.6 9.9v-38.2h-10.5v104.8h10.5zm-3.5-46.8c3.2-6.5 9.3-12 17.3-12 14.7 0 17.8 20.2 17.8 31.4 0 21.8-10.4 28.9-17.6 28.9-7.4 0-14.6-7.5-17.5-13.8zm0 46.8c4.9 6.2 10.7 10.7 19 10.7 10.1 0 27.2-9.3 27.2-37.9 0-29.2-14.8-40.8-27.6-40.8-7.2 0-13.8 4.7-18.6 9.8v-38.1h-10.6v104.8h10.6zm121.8-26.9c1.5-18.2-4.7-41.1-26.1-41.1-16.6 0-29.8 11.4-29.8 39.3 0 27.9 13.2 39.4 29.8 39.4 12.8 0 22.7-7.2 26.8-16.7l-7.6-5c-3.7 6.4-10.3 12.8-18.2 12.8-10.7 0-19.8-7.4-19.8-28.7zm-44.6-8.9c0.2-10.5 5.8-23.3 17.7-23.3 11 0 16.2 13.7 15.9 23.3zm41 8.9c1.5-18.2-4.7-41.1-26.1-41.1-16.6 0-29.8 11.4-29.8 39.3 0 27.9 13.2 39.4 29.8 39.4 12.8 0 22.8-7.2 26.8-16.7l-7.5-5c-3.8 6.4-10.4 12.8-18.2 12.8-10.8 0-19.8-7.4-19.8-28.7zm-44.6-8.9c0.1-10.5 5.8-23.3 17.6-23.3 11.1 0 16.2 13.7 15.9 23.3zm81.6-54.2h-10.5v24.1h-11.3v8.9h11.3v42.1c0 13.6-1 25.6 16.8 25.6 3.7 0 7.2-1 10.5-2.2v-7.7c-2.5 0.7-5.4 1-8.3 1-8.6 0-8.5-4.7-8.5-12v-46.8h16.8v-8.9h-16.8zm-3.6 0h-10.5v24.2h-11.3v8.9h11.3v42c0 13.6-0.9 25.6 16.9 25.6 3.6 0 7.1-1 10.5-2.2v-7.6c-2.6 0.6-5.4 0.9-8.4 0.9-8.6 0-8.5-4.7-8.5-12v-46.7h16.9v-8.9h-16.9zm43.7-6.4h-10.5v104.9h10.5v-56.6c4.2-5 12.7-11.4 19.2-11.4 11.2 0 9.8 11.5 9.8 19.3v48.7h10.5v-51.4c0-19.4-8.5-25.2-19-25.2-8.5 0-14.3 4.9-20.5 9.9zm-3.5 0h-10.5v104.8h10.5v-56.6c4.2-5 12.6-11.3 19.1-11.3 11.2 0 9.9 11.4 9.9 19.2v48.7h10.5v-51.4c0-19.4-8.5-25.1-19-25.1-8.5 0-14.3 4.8-20.5 9.8zm116.6 9.6h0.2l48.3 95.2h11v-104.8h-11v82.6h-0.3l-41.8-82.6h-17.5v104.8h11.1zm-3.6 0h0.3l48.2 95.3h11.1v-104.9h-11.1v82.6h-0.2l-41.8-82.6h-17.5v104.9h11zm137.2 59.8c1.5-18.2-4.7-41.1-26.1-41.1-16.6 0-29.8 11.4-29.8 39.3 0 27.9 13.2 39.4 29.8 39.4 12.8 0 22.8-7.2 26.8-16.7l-7.5-5c-3.8 6.5-10.4 12.8-18.2 12.8-10.8 0-19.8-7.4-19.8-28.7zm-44.6-8.9c0.1-10.5 5.8-23.3 17.6-23.3 11.1 0 16.2 13.7 15.9 23.3zm41.1 8.9c1.4-18.2-4.8-41.1-26.2-41.1-16.5 0-29.8 11.4-29.8 39.3 0 27.9 13.3 39.4 29.8 39.4 12.8 0 22.8-7.2 26.8-16.7l-7.5-5c-3.8 6.5-10.4 12.8-18.2 12.8-10.8 0-19.8-7.4-19.8-28.7zm-44.6-8.9c0.1-10.5 5.8-23.3 17.7-23.3 11 0 16.1 13.7 15.8 23.3zm77.6-60.5h-10.5v104.8h10.5zm-3.6 0h-10.5v104.8h10.5zm72.6 41.3c-5.8-8.6-14.5-13-24.8-13-12.3 0-22.8 7.9-22.8 20.7 0 26.6 39.2 17.7 39.2 36.5 0 8.5-6.9 12.6-14.6 12.6-8.8 0-15.3-4.3-19.4-12l-8.3 5.3c6.1 10.4 15.8 15.6 27.7 15.6 14.1 0 24.4-8.9 24.4-23.4 0-25.1-39.2-17.1-39.2-35.3 0-7.6 6.5-11.1 13.4-11.1 7.8 0 12.8 3.7 16.9 9.9zm-3.5 0c-5.8-8.7-14.4-13-24.8-13-12.3 0-22.8 7.8-22.8 20.6 0 26.7 39.2 17.8 39.2 36.6 0 8.4-6.8 12.6-14.5 12.6-8.9 0-15.4-4.3-19.4-12l-8.4 5.3c6.1 10.4 15.8 15.6 27.8 15.6 14 0 24.4-8.9 24.4-23.4 0-25.1-39.2-17.1-39.2-35.3 0-7.6 6.4-11.1 13.3-11.1 7.8 0 12.8 3.7 17 9.9zm77 28.1c1.4-18.2-4.8-41.1-26.2-41.1-16.5 0-29.8 11.5-29.8 39.4 0 27.9 13.3 39.3 29.8 39.3 12.8 0 22.8-7.1 26.8-16.7l-7.5-5c-3.8 6.5-10.4 12.8-18.2 12.8-10.8 0-19.8-7.4-19.8-28.7zm-44.6-8.9c0.1-10.5 5.8-23.3 17.6-23.3 11.1 0 16.2 13.8 15.9 23.3zm41.1 8.9c1.5-18.2-4.7-41.1-26.1-41.1-16.6 0-29.8 11.5-29.8 39.4 0 27.9 13.2 39.3 29.8 39.3 12.8 0 22.7-7.1 26.8-16.7l-7.6-5c-3.8 6.5-10.4 12.8-18.2 12.8-10.7 0-19.8-7.4-19.8-28.7zm-44.6-8.9c0.2-10.5 5.8-23.3 17.7-23.3 11 0 16.1 13.8 15.9 23.3zm77.2-12.2c4.2-5 12.7-11.3 19.2-11.3 11.1 0 9.8 11.4 9.8 19.2v48.7h10.5v-51.4c0-19.4-8.5-25.2-19-25.2-8.5 0-14.3 4.9-20.5 9.9v-7.7h-10.5v74.4h10.5zm-3.5 0c4.2-5 12.6-11.4 19.1-11.4 11.2 0 9.8 11.5 9.8 19.3v48.6h10.6v-51.3c0-19.4-8.5-25.2-19-25.2-8.5 0-14.3 4.9-20.5 9.9v-7.7h-10.5v74.3h10.5z"/></svg>